<?xml version="1.0" encoding="UTF-8" standalone="no"?>
<!-- Created with Inkscape (http://www.inkscape.org/) -->
<svg xmlns:dc="http://purl.org/dc/elements/1.1/" xmlns:cc="http://creativecommons.org/ns#" xmlns:rdf="http://www.w3.org/1999/02/22-rdf-syntax-ns#" xmlns:svg="http://www.w3.org/2000/svg" xmlns="http://www.w3.org/2000/svg" xmlns:sodipodi="http://sodipodi.sourceforge.net/DTD/sodipodi-0.dtd" xmlns:inkscape="http://www.inkscape.org/namespaces/inkscape" width="639.89166" height="233.26942" id="svg3590" sodipodi:version="0.32" inkscape:version="0.46" version="1.0" sodipodi:docname="Logo Cineplex Divertissement.svg" inkscape:output_extension="org.inkscape.output.svg.inkscape">
  <defs id="defs3592">
    <inkscape:perspective sodipodi:type="inkscape:persp3d" inkscape:vp_x="0 : 526.18109 : 1" inkscape:vp_y="0 : 1000 : 0" inkscape:vp_z="744.09448 : 526.18109 : 1" inkscape:persp3d-origin="372.04724 : 350.78739 : 1" id="perspective3598"/>
    <inkscape:perspective id="perspective3636" inkscape:persp3d-origin="372.04724 : 350.78739 : 1" inkscape:vp_z="744.09448 : 526.18109 : 1" inkscape:vp_y="0 : 1000 : 0" inkscape:vp_x="0 : 526.18109 : 1" sodipodi:type="inkscape:persp3d"/>
    <inkscape:perspective id="perspective3649" inkscape:persp3d-origin="372.04724 : 350.78739 : 1" inkscape:vp_z="744.09448 : 526.18109 : 1" inkscape:vp_y="0 : 1000 : 0" inkscape:vp_x="0 : 526.18109 : 1" sodipodi:type="inkscape:persp3d"/>
  </defs>
  <sodipodi:namedview id="base" pagecolor="#ffffff" bordercolor="#666666" borderopacity="1.0" inkscape:pageopacity="0.0" inkscape:pageshadow="2" inkscape:zoom="0.7" inkscape:cx="405.06633" inkscape:cy="278.94" inkscape:document-units="px" inkscape:current-layer="layer1" showgrid="false" inkscape:window-width="1280" inkscape:window-height="968" inkscape:window-x="-4" inkscape:window-y="-4"/>
  <metadata id="metadata3595">
    <rdf:RDF>
      <cc:Work rdf:about="">
        <dc:format>image/svg+xml</dc:format>
        <dc:type rdf:resource="http://purl.org/dc/dcmitype/StillImage"/>
      </cc:Work>
    </rdf:RDF>
  </metadata>
  <g inkscape:label="Calque 1" inkscape:groupmode="layer" id="layer1" transform="translate(-80.385911,-321.36007)">
    <path d="M 388.97243,392.83543 C 388.97579,392.83543 388.44917,392.82202 388.44917,392.82202 C 350.36503,392.0237 320.51893,383.78232 320.51893,374.04493 C 320.51893,364.97169 347.97346,353.8926 384.7159,352.64148 L 385.28612,352.61799 L 384.75615,349.48512 L 382.55241,349.56227 C 353.92725,350.63563 329.34395,355.40537 316.7756,362.31848 C 311.27462,365.36414 308.48388,368.61105 308.48388,371.97536 C 308.48388,375.35979 311.27462,378.6 316.7756,381.5987 C 330.13556,388.9747 357.52635,393.93562 388.2714,394.55281 C 388.26469,394.55281 388.95231,394.583 388.95231,394.583 C 389.63993,394.583 390.14306,394.19054 390.14306,393.70753 C 390.14306,393.21446 389.62987,392.83543 388.97243,392.83543" style="fill:#e8a712;fill-opacity:1;fill-rule:nonzero;stroke:none" id="path2788"/>
    <path d="M 388.48338,399.91222 C 388.4968,399.91222 387.43351,399.88204 387.43351,399.88204 C 334.32233,398.78185 292.71623,386.46505 292.71623,371.84052 C 292.71623,358.7556 327.74465,343.29251 379.88644,341.12231 L 383.97528,340.95795 L 383.36481,335.96012 L 379.47723,336.02385 C 339.18935,337.49972 303.06408,344.62751 285.19936,354.65 C 277.16258,359.19836 273.08717,364.03519 273.08717,369.04307 C 273.08717,374.05433 277.16258,378.90121 285.19936,383.42945 C 304.493,394.26032 343.62366,401.48201 387.30939,402.26691 L 388.46997,402.30046 C 389.44941,402.30046 390.20411,401.77719 390.20411,401.10298 C 390.20411,400.42878 389.44941,399.91222 388.48338,399.91222" style="fill:#e8a712;fill-opacity:1;fill-rule:nonzero;stroke:none" id="path2792"/>
    <path d="M 387.30202,407.24896 C 387.31879,407.24896 386.20853,407.20872 386.20853,407.20872 C 313.40121,405.89384 256.36223,388.95824 256.36223,368.67845 C 256.36223,348.52949 312.19368,329.60146 378.26567,327.35076 L 382.08616,327.24678 L 381.39855,321.36007 L 377.38016,321.37349 C 320.25059,323.07409 269.30291,332.81818 244.4211,346.77857 C 233.78142,352.79273 228.37773,359.18594 228.37773,365.78374 C 228.37773,372.41509 233.78142,378.81499 244.41775,384.82246 C 270.86935,399.66165 325.12766,409.46948 386.03411,410.41872 L 387.30202,410.41872 C 388.68732,410.41872 389.72715,409.73782 389.72715,408.83217 C 389.72715,407.92988 388.68732,407.24896 387.30202,407.24896" style="fill:#e8a712;fill-opacity:1;fill-rule:nonzero;stroke:none" id="path2796"/>
    <path d="M 399.08081,392.83543 C 399.07745,392.83543 399.60405,392.82202 399.60405,392.82202 C 437.69156,392.0237 467.53431,383.78232 467.53431,374.04493 C 467.53431,364.97169 440.07978,353.8926 403.33399,352.64148 L 402.76712,352.61799 L 403.3038,349.48512 L 405.50083,349.56227 C 434.12599,350.63563 458.71598,355.40537 471.27765,362.31848 C 476.78197,365.36414 479.57606,368.61105 479.57606,371.97536 C 479.57606,375.35979 476.78197,378.6 471.27765,381.5987 C 457.92438,388.9747 430.52689,393.93562 399.78518,394.55281 C 399.79191,394.55281 399.10092,394.583 399.10092,394.583 C 398.4133,394.583 397.90346,394.19054 397.90346,393.70753 C 397.90346,393.21446 398.42336,392.83543 399.08081,392.83543" style="fill:#e8a712;fill-opacity:1;fill-rule:nonzero;stroke:none" id="path2800"/>
    <path d="M 399.57454,399.91222 C 399.55777,399.91222 400.62107,399.88204 400.62107,399.88204 C 453.73224,398.78185 495.34169,386.46505 495.34169,371.84052 C 495.34169,358.7556 460.30993,343.29251 408.16813,341.12231 L 404.0793,340.95795 L 404.68977,335.96012 L 408.574,336.02385 C 448.86857,337.49972 484.99384,344.62751 502.87199,354.65 C 510.8987,359.19836 514.97076,364.03519 514.97076,369.04307 C 514.97076,374.05433 510.8987,378.90121 502.87199,383.42945 C 483.56829,394.26032 444.43091,401.48201 400.74518,402.26691 L 399.58795,402.30046 C 398.60181,402.30046 397.84039,401.77719 397.84039,401.10298 C 397.84039,400.42878 398.60181,399.91222 399.57454,399.91222" style="fill:#e8a712;fill-opacity:1;fill-rule:nonzero;stroke:none" id="path2804"/>
    <path d="M 400.75022,407.24896 C 400.7368,407.24896 401.84706,407.20872 401.84706,407.20872 C 474.65774,405.89384 531.69674,388.95824 531.69674,368.67845 C 531.69674,348.52949 475.86526,329.60146 409.78657,327.35076 C 409.78322,327.35076 405.97279,327.24678 405.97279,327.24678 L 406.65369,321.36007 L 410.6788,321.37349 C 467.80165,323.07409 518.76275,332.81818 543.64121,346.77857 C 554.28089,352.79273 559.67452,359.18594 559.67452,365.78374 C 559.67452,372.41509 554.28089,378.81499 543.64121,384.82246 C 517.18961,399.66165 462.92794,409.46948 402.02483,410.41872 L 400.75022,410.41872 C 399.36828,410.41872 398.32509,409.73782 398.32509,408.83217 C 398.32509,407.92988 399.36828,407.24896 400.75022,407.24896" style="fill:#e8a712;fill-opacity:1;fill-rule:nonzero;stroke:none" id="path2808"/>
    <path d="M 157.24851,480.68689 L 165.48991,491.22593 C 158.74787,495.72062 150.43939,499.12183 150.43939,499.12183 C 147.18912,500.34613 142.99968,501.60398 138.68947,502.4526 C 134.37925,503.30122 129.92146,503.68025 124.60833,503.68025 C 119.17445,503.68025 113.86132,502.81486 108.54819,501.43291 C 103.23505,500.05431 98.512268,497.84386 94.379836,494.81834 C 90.244048,491.78945 86.879737,488.01927 84.283547,483.50109 C 81.684005,478.98292 80.385911,473.75029 80.385911,467.7965 C 80.385911,461.84607 81.684005,456.64027 84.283547,452.17577 C 86.879737,447.71126 90.307778,443.96457 94.557611,440.93569 C 98.807443,437.90679 103.67782,435.64938 109.16873,434.16345 C 114.65963,432.67417 120.29813,431.92952 126.0842,431.92952 C 130.57218,431.92952 134.65095,432.42596 138.39429,433.04649 C 142.23155,433.6838 145.39461,434.62633 148.22559,435.59571 C 157.71812,438.84598 161.61911,442.47528 161.61911,442.47528 L 153.73663,452.77954 C 146.86042,447.36578 140.47057,445.67188 140.47057,445.67188 C 139.09533,445.27608 137.60604,444.92052 136.00271,444.60522 C 133.05097,444.02159 129.80406,443.72641 126.26197,443.72641 C 122.01214,443.72641 118.14134,444.22955 114.65963,445.23918 C 111.17457,446.25217 108.13561,447.76492 105.53943,449.78419 C 102.93989,451.80344 100.93405,454.30236 99.515192,457.27758 C 98.099703,460.2528 97.39195,463.65401 97.39195,467.47786 C 97.39195,471.30504 98.18691,474.73309 99.780175,477.75862 C 101.37681,480.79087 103.46985,483.39376 106.0694,485.57067 C 108.66559,487.75094 111.61733,489.39786 114.92461,490.51482 C 118.23191,491.62843 121.59622,492.1886 125.02091,492.1886 C 128.21079,492.1886 131.45771,491.81629 134.76499,491.07163 C 138.06894,490.33034 141.10117,489.51191 143.79799,488.4419 C 152.56599,484.9669 157.24851,480.68689 157.24851,480.68689" style="fill:#00225d;fill-opacity:1;fill-rule:nonzero;stroke:none" id="path2812"/>
    <path d="M 426.30052,462.45318 C 429.72186,462.45318 432.5864,461.89638 434.8874,460.77942 C 437.19177,459.66581 438.34563,457.4084 438.34563,454.00383 C 438.34563,450.71332 437.19177,448.39888 434.8874,447.0706 C 432.5864,445.74232 429.72186,445.07818 426.30052,445.07818 L 396.54164,445.07818 L 396.54164,462.45318 L 426.30052,462.45318 z M 396.58188,503.28445 L 379.53559,503.28445 L 379.53559,433.28128 L 426.65607,433.28128 C 436.21905,433.28128 443.39378,434.82424 448.17358,437.90343 C 452.95674,440.98935 455.34832,446.3528 455.34832,454.00383 C 455.34832,461.65488 452.95674,466.94453 448.17358,469.86608 C 443.39378,472.79099 436.21905,474.25008 426.65607,474.25008 L 396.54164,474.25008 L 396.58188,503.28445 z" style="fill:#00225d;fill-opacity:1;fill-rule:nonzero;stroke:none" id="path2816"/>
    <path d="M 243.23673,551.24855 L 245.10327,551.24855 C 250.17636,551.24855 253.11019,549.114 253.11019,538.12626 C 253.11019,527.1385 250.17636,525.00865 245.10327,525.00865 L 243.23673,525.00865 L 243.23673,551.24855 z M 239.76691,522.07013 L 245.7286,522.07013 C 252.48958,522.07013 256.58002,525.80792 256.58002,538.12626 C 256.58002,550.44927 252.48958,554.18709 245.7286,554.18709 L 239.76691,554.18709 L 239.76691,522.07013 z" style="fill:#00225d;fill-opacity:1;fill-rule:nonzero;stroke:none" id="path2874"/>
    <path d="M 269.31158,554.18332 L 265.84177,554.18332 L 265.84177,522.06636 L 269.31158,522.06636 L 269.31158,554.18332 z" style="fill:#00225d;fill-opacity:1;fill-rule:nonzero;stroke:none" id="path2876"/>
    <path d="M 280.25236,522.07059 L 285.90374,547.5112 L 285.99306,547.5112 L 291.63974,522.07059 L 295.10957,522.07059 L 287.54461,554.18754 L 284.3475,554.18754 L 276.78254,522.07059 L 280.25236,522.07059 z" style="fill:#00225d;fill-opacity:1;fill-rule:nonzero;stroke:none" id="path2880"/>
    <path d="M 317.88529,522.07059 L 317.88529,525.00911 L 306.67657,525.00911 L 306.67657,535.94985 L 314.94677,535.94985 L 314.94677,538.88366 L 306.67657,538.88366 L 306.67657,551.24899 L 318.41658,551.24899 L 318.41658,554.18754 L 303.20675,554.18754 L 303.20675,522.07059 L 317.88529,522.07059 z" style="fill:#00225d;fill-opacity:1;fill-rule:nonzero;stroke:none" id="path2884"/>
    <path d="M 330.87784,536.12756 L 333.90098,536.12756 C 338.88474,536.12756 340.48799,534.17169 340.48799,530.57022 C 340.48799,526.96407 338.88474,525.00816 333.90098,525.00816 L 330.87784,525.00816 L 330.87784,536.12756 z M 327.40801,522.06962 L 335.14693,522.06962 C 340.30935,522.06962 343.9531,525.09749 343.9531,530.38686 C 343.9531,533.99301 342.35456,537.01618 338.79541,538.26211 L 344.22111,554.1866 L 340.57264,554.1866 L 335.41491,538.97205 L 330.87784,539.15074 L 330.87784,554.1866 L 327.40801,554.1866 L 327.40801,522.06962 z" style="fill:#00225d;fill-opacity:1;fill-rule:nonzero;stroke:none" id="path2888"/>
    <path d="M 367.31982,522.07059 L 367.31982,525.00911 L 360.73751,525.00911 L 360.73751,554.18754 L 357.26771,554.18754 L 357.26771,525.00911 L 350.68539,525.00911 L 350.68539,522.07059 L 367.31982,522.07059 z" style="fill:#00225d;fill-opacity:1;fill-rule:nonzero;stroke:none" id="path2892"/>
    <path d="M 378.80358,554.18332 L 375.33376,554.18332 L 375.33376,522.06636 L 378.80358,522.06636 L 378.80358,554.18332 z" style="fill:#00225d;fill-opacity:1;fill-rule:nonzero;stroke:none" id="path2894"/>
    <path d="M 400.86658,530.34548 C 400.59858,527.05433 399.26331,524.56245 395.92514,524.56245 C 393.2593,524.56245 391.5244,526.33967 391.5244,528.78452 C 391.5244,536.03918 404.42573,536.1285 404.42573,546.44393 C 404.42573,551.55933 401.48719,554.62949 396.19314,554.62949 C 391.17178,554.62949 388.14391,550.9387 388.05458,545.55531 L 391.2564,545.55531 C 391.34575,549.33544 393.12767,551.69567 396.55046,551.69567 C 399.44198,551.69567 401.30852,549.82441 401.30852,546.4016 C 401.30852,539.10464 388.41192,538.26306 388.41192,529.09953 C 388.41192,524.56245 391.5244,521.62862 396.15082,521.62862 C 400.77724,521.62862 403.80041,524.74112 404.06839,530.34548 L 400.86658,530.34548 z" style="fill:#00225d;fill-opacity:1;fill-rule:nonzero;stroke:none" id="path2898"/>
    <path d="M 425.06501,530.34548 C 424.79703,527.05433 423.46175,524.56245 420.12828,524.56245 C 417.45775,524.56245 415.72283,526.33967 415.72283,528.78452 C 415.72283,536.03918 428.62417,536.1285 428.62417,546.44393 C 428.62417,551.55933 425.69034,554.62949 420.39158,554.62949 C 415.37022,554.62949 412.34236,550.9387 412.25772,545.55531 L 415.45485,545.55531 C 415.54418,549.33544 417.32611,551.69567 420.74891,551.69567 C 423.64042,551.69567 425.51169,549.82441 425.51169,546.4016 C 425.51169,539.10464 412.61035,538.26306 412.61035,529.09953 C 412.61035,524.56245 415.72283,521.62862 420.34928,521.62862 C 424.97569,521.62862 427.99884,524.74112 428.26684,530.34548 L 425.06501,530.34548 z" style="fill:#00225d;fill-opacity:1;fill-rule:nonzero;stroke:none" id="path2902"/>
    <path d="M 452.46905,522.07059 L 452.46905,525.00911 L 441.26032,525.00911 L 441.26032,535.94985 L 449.53051,535.94985 L 449.53051,538.88366 L 441.26032,538.88366 L 441.26032,551.24899 L 453.00034,551.24899 L 453.00034,554.18754 L 437.7905,554.18754 L 437.7905,522.07059 L 452.46905,522.07059 z" style="fill:#00225d;fill-opacity:1;fill-rule:nonzero;stroke:none" id="path2906"/>
    <path d="M 467.06154,522.07059 L 472.66589,546.3546 L 472.75523,546.3546 L 478.22796,522.07059 L 483.743,522.07059 L 483.743,554.18754 L 480.53646,554.18754 L 480.53646,524.74112 L 480.45182,524.74112 L 473.7802,554.18754 L 471.5093,554.18754 L 464.83766,524.74112 L 464.74832,524.74112 L 464.74832,554.18754 L 461.54649,554.18754 L 461.54649,522.07059 L 467.06154,522.07059 z" style="fill:#00225d;fill-opacity:1;fill-rule:nonzero;stroke:none" id="path2910"/>
    <path d="M 508.30345,522.07059 L 508.30345,525.00911 L 497.09474,525.00911 L 497.09474,535.94985 L 505.36492,535.94985 L 505.36492,538.88366 L 497.09474,538.88366 L 497.09474,551.24899 L 508.83474,551.24899 L 508.83474,554.18754 L 493.62491,554.18754 L 493.62491,522.07059 L 508.30345,522.07059 z" style="fill:#00225d;fill-opacity:1;fill-rule:nonzero;stroke:none" id="path2914"/>
    <path d="M 522.8071,522.07059 L 531.082,545.73397 L 531.17133,545.73397 L 531.17133,522.07059 L 534.63645,522.07059 L 534.63645,554.18754 L 530.90334,554.18754 L 520.94056,526.25034 L 520.85123,526.25034 L 520.85123,554.18754 L 517.38141,554.18754 L 517.38141,522.07059 L 522.8071,522.07059 z" style="fill:#00225d;fill-opacity:1;fill-rule:nonzero;stroke:none" id="path2918"/>
    <path d="M 558.52884,522.07059 L 558.52884,525.00911 L 551.94654,525.00911 L 551.94654,554.18754 L 548.47671,554.18754 L 548.47671,525.00911 L 541.89441,525.00911 L 541.89441,522.07059 L 558.52884,522.07059 z" style="fill:#00225d;fill-opacity:1;fill-rule:nonzero;stroke:none" id="path2922"/>
    <path d="M 715.83322,436.06231 C 715.56489,435.91472 715.1389,435.83757 714.54855,435.83757 L 713.6429,435.83757 L 713.6429,438.01783 L 714.60222,438.01783 C 715.0517,438.01783 715.38711,437.97423 715.61185,437.88366 C 716.02777,437.71931 716.23239,437.404 716.23239,436.94447 C 716.23239,436.50506 716.10157,436.20989 715.83322,436.06231 M 714.68943,435.1164 C 715.43743,435.1164 715.98082,435.18685 716.32966,435.33109 C 716.95356,435.58935 717.26214,436.0992 717.26214,436.85391 C 717.26214,437.39394 717.06759,437.78974 716.67516,438.0413 C 716.47054,438.17549 716.17872,438.27275 715.80639,438.33314 C 716.27599,438.40692 716.62148,438.60483 716.8395,438.92348 C 717.05754,439.24214 717.16487,439.55073 717.16487,439.85596 L 717.16487,440.29536 C 717.16487,440.4329 717.17157,440.58048 717.18164,440.74148 C 717.1917,440.89913 717.20847,441.00647 717.23196,441.05343 L 717.26885,441.12723 L 716.27934,441.12723 C 716.27264,441.10709 716.26929,441.09032 716.26257,441.0702 C 716.25922,441.05008 716.25251,441.02659 716.24916,441.00311 L 716.22568,440.80856 L 716.22568,440.33227 C 716.22568,439.63793 716.03785,439.18175 715.65881,438.95702 C 715.43743,438.82956 715.04163,438.76247 714.48146,438.76247 L 713.6429,438.76247 L 713.6429,441.12723 L 712.58297,441.12723 L 712.58297,435.1164 L 714.68943,435.1164 z M 711.466,434.80782 C 710.55029,435.73023 710.09412,436.84049 710.09412,438.14529 C 710.09412,439.4568 710.54693,440.57712 711.45929,441.5029 C 712.37164,442.42867 713.48525,442.8882 714.79342,442.8882 C 716.10157,442.8882 717.21183,442.42867 718.12754,441.5029 C 719.04325,440.57712 719.50278,439.4568 719.50278,438.14529 C 719.50278,436.84049 719.04325,435.73023 718.12754,434.80782 C 717.20847,433.88205 716.09486,433.41915 714.79342,433.41915 C 713.49532,433.41915 712.38506,433.88205 711.466,434.80782 M 718.67428,442.0228 C 717.60427,443.09952 716.30954,443.6362 714.79342,443.6362 C 713.27729,443.6362 711.98591,443.09952 710.91926,442.0228 C 709.86266,440.95616 709.32934,439.65806 709.32934,438.13523 C 709.32934,436.62918 709.86602,435.34115 710.93603,434.27114 C 711.99933,433.20784 713.28735,432.67451 714.79342,432.67451 C 716.30954,432.67451 717.60427,433.20784 718.67428,434.27114 C 719.74429,435.33779 720.2776,436.62582 720.2776,438.13523 C 720.2776,439.6547 719.74429,440.94945 718.67428,442.0228" style="fill:#00225d;fill-opacity:1;fill-rule:nonzero;stroke:none" id="path2926"/>
    <path d="M 189.86926,503.36933 L 172.90683,503.36933 L 172.90683,433.10453 L 189.86926,433.10453 L 189.86926,503.36933 z" style="fill:#00225d;fill-opacity:1;fill-rule:nonzero;stroke:none" id="path2928"/>
    <path d="M 202.71369,433.1035 L 202.71369,503.37167 L 217.5965,503.37167 L 217.5965,451.48814 L 270.7278,503.45887 L 285.43952,503.45887 L 285.43952,433.19407 L 270.64394,433.19407 L 270.64394,481.82061 L 220.10548,433.19407 L 202.71369,433.1035 z" style="fill:#00225d;fill-opacity:1;fill-rule:nonzero;stroke:none" id="path2932"/>
    <path d="M 368.54037,503.37134 L 368.54037,491.60129 L 315.06358,491.60129 L 315.06358,472.73699 L 351.31964,472.73699 L 351.31964,460.97028 L 315.06358,460.97028 L 315.06358,444.96046 L 366.98399,444.96046 L 366.98399,433.10319 L 298.01729,433.10319 L 298.01729,503.37134 L 368.54037,503.37134 z" style="fill:#00225d;fill-opacity:1;fill-rule:nonzero;stroke:none" id="path2936"/>
    <path d="M 618.6335,503.37134 L 618.6335,491.60129 L 565.15671,491.60129 L 565.15671,472.73699 L 601.41278,472.73699 L 601.41278,460.97028 L 565.15671,460.97028 L 565.15671,444.96046 L 617.07713,444.96046 L 617.07713,433.10319 L 548.11042,433.10319 L 548.11042,503.37134 L 618.6335,503.37134 z" style="fill:#00225d;fill-opacity:1;fill-rule:nonzero;stroke:none" id="path2940"/>
    <path d="M 464.85359,433.10754 L 464.85359,503.44613 L 537.62737,503.44613 L 537.62737,491.69283 L 481.6416,491.69283 L 481.6416,433.06057 L 464.85359,433.10754 z" style="fill:#00225d;fill-opacity:1;fill-rule:nonzero;stroke:none" id="path2944"/>
    <path d="M 624.5876,433.15586 L 655.85591,468.20441 L 624.00732,503.38042 L 643.92486,503.38042 L 665.53627,479.19293 L 687.17118,503.35693 L 709.21194,503.35693 L 676.25309,467.36585 L 706.96124,433.1458 L 687.57704,433.1458 L 666.43857,456.54504 L 645.12232,433.15586 L 624.5876,433.15586 z" style="fill:#00225d;fill-opacity:1;fill-rule:nonzero;stroke:none" id="path2948"/>
  </g>
</svg>